<svg preserveAspectRatio="none" width="100%" height="100%" overflow="visible" style="display: block;" viewBox="0 0 236.698 64" fill="none" xmlns="http://www.w3.org/2000/svg">
<g id="Logo TEXTO Gradient 1">
<g id="Vector">
</g>
<path id="Vector_2" d="M6.20795 45.4454V19.996H25.328V24.7223H12.0271V40.7191H25.7978V45.4454H6.20795ZM11.5934 34.8293V30.2484H23.7738V34.8293H11.5934ZM49.0707 45.8817C47.1189 45.8817 45.2997 45.5665 43.613 44.9364C41.9504 44.282 40.5046 43.361 39.2757 42.1733C38.0468 40.9857 37.083 39.592 36.3842 37.9923C35.7096 36.3927 35.3722 34.6355 35.3722 32.7207C35.3722 30.8059 35.7096 29.0487 36.3842 27.449C37.083 25.8493 38.0468 24.4557 39.2757 23.268C40.5287 22.0804 41.9865 21.1715 43.6491 20.5413C45.3117 19.8869 47.131 19.5597 49.1068 19.5597C51.2996 19.5597 53.2754 19.9475 55.0346 20.7231C56.8172 21.4745 58.3116 22.5894 59.5162 24.0679L55.7575 27.5581C54.8897 26.5644 53.9257 25.8251 52.8658 25.3403C51.8056 24.8314 50.649 24.5769 49.396 24.5769C48.2153 24.5769 47.131 24.7707 46.143 25.1586C45.1551 25.5464 44.2997 26.1038 43.5768 26.831C42.854 27.5581 42.2877 28.4185 41.8781 29.4122C41.4926 30.406 41.2998 31.5088 41.2998 32.7207C41.2998 33.9325 41.4926 35.0354 41.8781 36.0291C42.2877 37.0228 42.854 37.8833 43.5768 38.6104C44.2997 39.3375 45.1551 39.895 46.143 40.2828C47.131 40.6706 48.2153 40.8645 49.396 40.8645C50.649 40.8645 51.8056 40.6221 52.8658 40.1374C53.9257 39.6284 54.8897 38.8649 55.7575 37.8469L59.5162 41.3371C58.3116 42.8156 56.8172 43.9427 55.0346 44.7183C53.2754 45.4938 51.2875 45.8817 49.0707 45.8817ZM80.7827 45.8817C78.7825 45.8817 76.9272 45.5544 75.2163 44.9C73.5299 44.2456 72.0596 43.3246 70.8069 42.137C69.5782 40.9493 68.6142 39.5557 67.9154 37.956C67.2406 36.3563 66.9033 34.6112 66.9033 32.7207C66.9033 30.8301 67.2406 29.085 67.9154 27.4854C68.6142 25.8857 69.59 24.492 70.8432 23.3044C72.096 22.1167 73.5658 21.1957 75.2527 20.5413C76.939 19.8869 78.7708 19.5597 80.7464 19.5597C82.7466 19.5597 84.5778 19.8869 86.2401 20.5413C87.927 21.1957 89.3845 22.1167 90.6137 23.3044C91.8665 24.492 92.8422 25.8857 93.541 27.4854C94.2399 29.0608 94.5895 30.8059 94.5895 32.7207C94.5895 34.6112 94.2399 36.3684 93.541 37.9923C92.8422 39.592 91.8665 40.9857 90.6137 42.1733C89.3845 43.3367 87.927 44.2456 86.2401 44.9C84.5778 45.5544 82.7584 45.8817 80.7827 45.8817ZM80.7464 40.8645C81.8788 40.8645 82.915 40.6706 83.855 40.2828C84.8184 39.895 85.6621 39.3375 86.385 38.6104C87.1079 37.8833 87.6618 37.0228 88.0473 36.0291C88.4569 35.0354 88.6616 33.9325 88.6616 32.7207C88.6616 31.5088 88.4569 30.406 88.0473 29.4122C87.6618 28.4185 87.1079 27.5581 86.385 26.831C85.6862 26.1038 84.8548 25.5464 83.8908 25.1586C82.9273 24.7707 81.8788 24.5769 80.7464 24.5769C79.614 24.5769 78.5655 24.7707 77.602 25.1586C76.662 25.5464 75.8306 26.1038 75.1078 26.831C74.3849 27.5581 73.8187 28.4185 73.4091 29.4122C73.0236 30.406 72.8311 31.5088 72.8311 32.7207C72.8311 33.9083 73.0236 35.0111 73.4091 36.0291C73.8187 37.0228 74.3731 37.8833 75.0719 38.6104C75.7948 39.3375 76.638 39.895 77.602 40.2828C78.5655 40.6706 79.614 40.8645 80.7464 40.8645Z" fill="url(#paint0_linear_0_93)"/>
<path id="Vector_3" d="M105.55 45.4454V19.996H111.405V40.6463H124.092V45.4454H105.55ZM133.869 45.4454V19.996H139.724V45.4454H133.869ZM152.234 45.4454V19.996H157.077L172.005 38.3195H169.656V19.996H175.439V45.4454H170.631L155.668 27.1218H158.017V45.4454H152.234ZM193.171 39.6284L192.846 32.8297L204.954 19.996H211.46L200.545 31.8118L197.292 35.302L193.171 39.6284ZM187.931 45.4454V19.996H193.749V45.4454H187.931ZM205.243 45.4454L196.244 34.3567L200.075 30.1757L212.074 45.4454H205.243Z" fill="url(#paint1_linear_0_93)"/>
<path id="Vector_4" d="M29.1266 56.7782C28.6985 56.7782 28.2882 56.7218 27.8957 56.6088C27.5032 56.491 27.1872 56.3394 26.9476 56.1549L27.3681 55.2169C27.5975 55.381 27.8676 55.5165 28.1785 55.6246C28.4946 55.7268 28.8131 55.7784 29.1343 55.7784C29.3789 55.7784 29.5752 55.7553 29.723 55.709C29.8759 55.658 29.988 55.5886 30.0594 55.5015C30.1308 55.4143 30.1665 55.3143 30.1665 55.2014C30.1665 55.0578 30.1104 54.9448 29.9982 54.8631C29.8861 54.7759 29.7383 54.7066 29.5548 54.6555C29.3713 54.599 29.1674 54.5479 28.9431 54.5017C28.724 54.45 28.5022 54.3887 28.2779 54.3172C28.0588 54.2451 27.8574 54.1531 27.6739 54.0402C27.4904 53.9273 27.3401 53.7786 27.2228 53.594C27.1107 53.4095 27.0546 53.1736 27.0546 52.8865C27.0546 52.5789 27.1362 52.2994 27.2993 52.0482C27.4675 51.7918 27.7172 51.5893 28.0486 51.4406C28.385 51.2868 28.8055 51.2099 29.3101 51.2099C29.6465 51.2099 29.9779 51.2509 30.3041 51.333C30.6303 51.4099 30.9183 51.5278 31.1681 51.6867L30.7858 52.6327C30.536 52.4891 30.2862 52.384 30.0365 52.3174C29.7867 52.2456 29.5421 52.2097 29.3025 52.2097C29.0629 52.2097 28.8667 52.2379 28.7138 52.2943C28.5608 52.3507 28.4512 52.425 28.385 52.5173C28.3187 52.6045 28.2856 52.707 28.2856 52.825C28.2856 52.9634 28.3417 53.0762 28.4538 53.1634C28.5659 53.2454 28.7138 53.3121 28.8973 53.3633C29.0808 53.4146 29.2821 53.4659 29.5013 53.5171C29.7256 53.5684 29.9473 53.6274 30.1665 53.694C30.3907 53.7607 30.5946 53.8504 30.7781 53.9633C30.9616 54.0762 31.1095 54.2247 31.2216 54.4091C31.3388 54.5936 31.3974 54.827 31.3974 55.1088C31.3974 55.4116 31.3133 55.6886 31.1451 55.9398C30.9769 56.1909 30.7246 56.3937 30.3882 56.5475C30.0568 56.7013 29.6363 56.7782 29.1266 56.7782ZM34.8433 56.7782C34.4203 56.7782 34.0278 56.7088 33.6659 56.5701C33.3091 56.4319 32.9982 56.2372 32.7331 55.986C32.4731 55.7349 32.2693 55.4396 32.1214 55.1013C31.9787 54.763 31.9073 54.3941 31.9073 53.994C31.9073 53.594 31.9787 53.2249 32.1214 52.8865C32.2693 52.5481 32.4757 52.2533 32.7407 52.0021C33.0058 51.7508 33.3167 51.556 33.6735 51.4176C34.0304 51.2791 34.4177 51.2099 34.8357 51.2099C35.2588 51.2099 35.6461 51.2791 35.9978 51.4176C36.3547 51.556 36.663 51.7508 36.923 52.0021C37.1881 52.2533 37.3945 52.5481 37.5423 52.8865C37.6901 53.2198 37.764 53.5889 37.764 53.994C37.764 54.3941 37.6901 54.7657 37.5423 55.1088C37.3945 55.4477 37.1881 55.7424 36.923 55.9936C36.663 56.2399 36.3547 56.4319 35.9978 56.5701C35.6461 56.7088 35.2613 56.7782 34.8433 56.7782ZM34.8357 55.7166C35.0753 55.7166 35.2944 55.6757 35.4932 55.5934C35.6971 55.5117 35.8755 55.3939 36.0284 55.2401C36.1813 55.0863 36.2986 54.9039 36.3801 54.6937C36.4668 54.4834 36.5101 54.2505 36.5101 53.994C36.5101 53.7376 36.4668 53.5043 36.3801 53.2941C36.2986 53.0839 36.1813 52.9019 36.0284 52.7481C35.8806 52.5942 35.7048 52.4763 35.5009 52.3943C35.297 52.3123 35.0753 52.2712 34.8357 52.2712C34.5961 52.2712 34.3744 52.3123 34.1705 52.3943C33.9717 52.4763 33.7958 52.5942 33.6429 52.7481C33.49 52.9019 33.3703 53.0839 33.2836 53.2941C33.202 53.5043 33.1612 53.7376 33.1612 53.994C33.1612 54.2451 33.202 54.4785 33.2836 54.6937C33.3703 54.9039 33.4875 55.0863 33.6353 55.2401C33.7882 55.3939 33.9666 55.5117 34.1705 55.5934C34.3744 55.6757 34.5961 55.7166 34.8357 55.7166ZM38.6949 56.6857V51.3022H42.7395V52.302H39.9335V56.6857H38.6949ZM39.8418 54.7243V53.7248H42.4108V54.7243H39.8418ZM44.724 56.6857V52.3174H43.0114V51.3022H47.6753V52.3174H45.9626V56.6857H44.724ZM49.5217 56.6857L47.7708 51.3022H49.0553L50.5768 56.0705H49.9345L51.5249 51.3022H52.6717L54.2011 56.0705H53.5814L55.1416 51.3022H56.3264L54.5754 56.6857H53.2452L51.8919 52.5019H52.2436L50.852 56.6857H49.5217ZM56.1355 56.6857L58.5207 51.3022H59.744L62.1372 56.6857H60.8374L58.88 51.9328H59.3692L57.4043 56.6857H56.1355ZM57.3278 55.5321L57.6567 54.5861H60.4091L60.7455 55.5321H57.3278ZM62.6927 56.6857V51.3022H64.9784C65.7227 51.3022 66.3012 51.4765 66.714 51.8252C67.1273 52.1687 67.3337 52.6455 67.3337 53.2556C67.3337 53.6556 67.239 54.0015 67.0508 54.2941C66.8621 54.5813 66.5942 54.8012 66.2477 54.955C65.9013 55.1088 65.4885 55.1858 65.0089 55.1858H63.3808L63.931 54.6399V56.6857H62.6927ZM66.0948 56.6857L64.7571 54.7324H66.0793L67.4331 56.6857H66.0948ZM63.931 54.7786L63.3808 54.194H64.9405C65.3228 54.194 65.6083 54.1117 65.7965 53.9477C65.9852 53.7786 66.0793 53.5479 66.0793 53.2556C66.0793 52.9583 65.9852 52.7276 65.7965 52.5635C65.6083 52.3994 65.3228 52.3174 64.9405 52.3174H63.3808L63.931 51.7252V54.7786ZM68.3148 56.6857V51.3022H72.3596V52.302H69.5456V55.6859H72.459V56.6857H68.3148ZM69.4542 54.4398V53.471H72.0307V54.4398H69.4542ZM78.1939 56.7782C77.771 56.7782 77.3812 56.7115 77.024 56.5782C76.6722 56.4394 76.3642 56.2447 76.099 55.9936C75.8392 55.7424 75.6349 55.4477 75.4874 55.1088C75.3446 54.7706 75.2735 54.3989 75.2735 53.994C75.2735 53.5889 75.3446 53.2172 75.4874 52.8788C75.6349 52.5404 75.8419 52.2456 76.1065 51.9944C76.3717 51.7431 76.6829 51.5509 77.0395 51.4176C77.3962 51.2791 77.7886 51.2099 78.2169 51.2099C78.6911 51.2099 79.1167 51.2894 79.4937 51.4483C79.876 51.6072 80.1973 51.838 80.4571 52.1405L79.6621 52.8788C79.468 52.6737 79.2568 52.5224 79.0274 52.425C78.7981 52.3225 78.5484 52.2712 78.2778 52.2712C78.018 52.2712 77.7811 52.3123 77.5672 52.3943C77.3528 52.4763 77.1668 52.5942 77.0091 52.7481C76.8561 52.9019 76.7364 53.0839 76.6497 53.2941C76.5679 53.5043 76.5273 53.7376 76.5273 53.994C76.5273 54.2451 76.5679 54.4758 76.6497 54.6861C76.7364 54.8964 76.8561 55.0809 77.0091 55.2401C77.1668 55.3939 77.3502 55.5117 77.5592 55.5934C77.7736 55.6757 78.0078 55.7166 78.2629 55.7166C78.5072 55.7166 78.7446 55.6784 78.974 55.6015C79.2082 55.5192 79.4354 55.3837 79.6541 55.1938L80.3577 56.0936C80.0674 56.3141 79.7284 56.483 79.3407 56.6013C78.9585 56.7191 78.5762 56.7782 78.1939 56.7782ZM80.3577 56.0936L79.2263 55.9322V53.9095H80.3577V56.0936ZM81.5083 56.6857V51.3022H85.5531V52.302H82.7391V55.6859H85.6525V56.6857H81.5083ZM82.6477 54.4398V53.471H85.2243V54.4398H82.6477ZM88.3965 56.7782C87.9682 56.7782 87.5581 56.7218 87.1656 56.6088C86.7727 56.491 86.4567 56.3394 86.2171 56.1549L86.6379 55.2169C86.8673 55.381 87.1373 55.5165 87.4485 55.6246C87.7645 55.7268 88.0831 55.7784 88.4039 55.7784C88.6488 55.7784 88.845 55.7553 88.9926 55.709C89.1455 55.658 89.2578 55.5886 89.3289 55.5015C89.4006 55.4143 89.4364 55.3143 89.4364 55.2014C89.4364 55.0578 89.3802 54.9448 89.268 54.8631C89.1557 54.7759 89.0081 54.7066 88.8247 54.6555C88.6408 54.599 88.4371 54.5479 88.2131 54.5017C87.9938 54.45 87.772 54.3887 87.5479 54.3172C87.3287 54.2451 87.1271 54.1531 86.9438 54.0402C86.7604 53.9273 86.6096 53.7786 86.4925 53.594C86.3802 53.4095 86.3246 53.1736 86.3246 52.8865C86.3246 52.5789 86.4059 52.2994 86.5689 52.0482C86.7374 51.7918 86.9871 51.5893 87.3186 51.4406C87.6549 51.2868 88.0751 51.2099 88.5798 51.2099C88.9161 51.2099 89.2476 51.2509 89.5738 51.333C89.8999 51.4099 90.1881 51.5278 90.4378 51.6867L90.0555 52.6327C89.8058 52.4891 89.5562 52.384 89.3065 52.3174C89.0562 52.2456 88.8119 52.2097 88.5724 52.2097C88.3328 52.2097 88.1366 52.2379 87.9837 52.2943C87.8308 52.3507 87.7212 52.425 87.6549 52.5173C87.5886 52.6045 87.5554 52.707 87.5554 52.825C87.5554 52.9634 87.6116 53.0762 87.7233 53.1634C87.8356 53.2454 87.9837 53.3121 88.1671 53.3633C88.3505 53.4146 88.552 53.4659 88.7713 53.5171C88.9953 53.5684 89.2172 53.6274 89.4364 53.694C89.6604 53.7607 89.8641 53.8504 90.048 53.9633C90.2314 54.0762 90.379 54.2247 90.4913 54.4091C90.6084 54.5936 90.6672 54.827 90.6672 55.1088C90.6672 55.4116 90.5833 55.6886 90.4148 55.9398C90.2464 56.1909 89.9946 56.3937 89.6577 56.5475C89.3268 56.7013 88.906 56.7782 88.3965 56.7782ZM92.5476 56.6857V52.3174H90.8351V51.3022H95.499V52.3174H93.7859V56.6857H92.5476ZM96.1652 56.6857V51.3022H97.404V56.6857H96.1652ZM101.273 56.7782C100.851 56.7782 100.458 56.7088 100.096 56.5701C99.7395 56.4319 99.4283 56.2372 99.1631 55.986C98.9033 55.7349 98.6995 55.4396 98.5514 55.1013C98.4087 54.763 98.3376 54.3941 98.3376 53.994C98.3376 53.594 98.4087 53.2249 98.5514 52.8865C98.6995 52.5481 98.9059 52.2533 99.1711 52.0021C99.4358 51.7508 99.747 51.556 100.104 51.4176C100.461 51.2791 100.848 51.2099 101.266 51.2099C101.689 51.2099 102.077 51.2791 102.428 51.4176C102.785 51.556 103.093 51.7508 103.353 52.0021C103.618 52.2533 103.825 52.5481 103.972 52.8865C104.121 53.2198 104.194 53.5889 104.194 53.994C104.194 54.3941 104.121 54.7657 103.972 55.1088C103.825 55.4477 103.618 55.7424 103.353 55.9936C103.093 56.2399 102.785 56.4319 102.428 56.5701C102.077 56.7088 101.692 56.7782 101.273 56.7782ZM101.266 55.7166C101.505 55.7166 101.725 55.6757 101.924 55.5934C102.127 55.5117 102.306 55.3939 102.459 55.2401C102.612 55.0863 102.729 54.9039 102.81 54.6937C102.897 54.4834 102.941 54.2505 102.941 53.994C102.941 53.7376 102.897 53.5043 102.81 53.2941C102.729 53.0839 102.612 52.9019 102.459 52.7481C102.311 52.5942 102.135 52.4763 101.931 52.3943C101.727 52.3123 101.505 52.2712 101.266 52.2712C101.026 52.2712 100.805 52.3123 100.601 52.3943C100.402 52.4763 100.226 52.5942 100.073 52.7481C99.9202 52.9019 99.8004 53.0839 99.7138 53.2941C99.632 53.5043 99.5914 53.7376 99.5914 53.994C99.5914 54.2451 99.632 54.4785 99.7138 54.6937C99.8004 54.9039 99.9175 55.0863 100.066 55.2401C100.219 55.3939 100.397 55.5117 100.601 55.5934C100.805 55.6757 101.026 55.7166 101.266 55.7166ZM100.57 50.8638L101.602 49.7563H102.887L101.503 50.8638H100.57ZM105.125 56.6857V51.3022H106.15L109.307 55.1782H108.81V51.3022H110.033V56.6857H109.017L105.851 52.8096H106.349V56.6857H105.125ZM113.466 56.6857V51.3022H114.704V56.6857H113.466ZM115.974 56.6857V51.3022H116.999L120.156 55.1782H119.659V51.3022H120.882V56.6857H119.866L116.7 52.8096H117.198V56.6857H115.974ZM123.257 56.6857V52.3174H121.545V51.3022H126.209V52.3174H124.496V56.6857H123.257ZM126.875 56.6857V51.3022H130.92V52.302H128.106V55.6859H131.019V56.6857H126.875ZM128.014 54.4398V53.471H130.591V54.4398H128.014ZM134.589 56.7782C134.166 56.7782 133.776 56.7115 133.419 56.5782C133.068 56.4394 132.759 56.2447 132.494 55.9936C132.234 55.7424 132.03 55.4477 131.882 55.1088C131.739 54.7706 131.668 54.3989 131.668 53.994C131.668 53.5889 131.739 53.2172 131.882 52.8788C132.03 52.5404 132.237 52.2456 132.502 51.9944C132.767 51.7431 133.078 51.5509 133.434 51.4176C133.792 51.2791 134.184 51.2099 134.612 51.2099C135.086 51.2099 135.512 51.2894 135.889 51.4483C136.271 51.6072 136.592 51.838 136.852 52.1405L136.057 52.8788C135.863 52.6737 135.652 52.5224 135.422 52.425C135.193 52.3225 134.943 52.2712 134.673 52.2712C134.413 52.2712 134.176 52.3123 133.962 52.3943C133.748 52.4763 133.562 52.5942 133.404 52.7481C133.251 52.9019 133.131 53.0839 133.045 53.2941C132.963 53.5043 132.922 53.7376 132.922 53.994C132.922 54.2451 132.963 54.4758 133.045 54.6861C133.131 54.8964 133.251 55.0809 133.404 55.2401C133.562 55.3939 133.746 55.5117 133.955 55.5934C134.168 55.6757 134.403 55.7166 134.658 55.7166C134.903 55.7166 135.139 55.6784 135.369 55.6015C135.604 55.5192 135.83 55.3837 136.049 55.1938L136.753 56.0936C136.462 56.3141 136.123 56.483 135.736 56.6013C135.354 56.7191 134.972 56.7782 134.589 56.7782ZM136.753 56.0936L135.621 55.9322V53.9095H136.753V56.0936ZM137.903 56.6857V51.3022H140.189C140.934 51.3022 141.512 51.4765 141.925 51.8252C142.338 52.1687 142.545 52.6455 142.545 53.2556C142.545 53.6556 142.45 54.0015 142.261 54.2941C142.073 54.5813 141.805 54.8012 141.459 54.955C141.112 55.1088 140.699 55.1858 140.22 55.1858H138.591L139.142 54.6399V56.6857H137.903ZM141.306 56.6857L139.968 54.7324H141.29L142.644 56.6857H141.306ZM139.142 54.7786L138.591 54.194H140.151C140.534 54.194 140.819 54.1117 141.007 53.9477C141.196 53.7786 141.29 53.5479 141.29 53.2556C141.29 52.9583 141.196 52.7276 141.007 52.5635C140.819 52.3994 140.534 52.3174 140.151 52.3174H138.591L139.142 51.7252V54.7786ZM142.822 56.6857L145.208 51.3022H146.431L148.824 56.6857H147.525L145.567 51.9328H146.056L144.091 56.6857H142.822ZM144.015 55.5321L144.344 54.5861H147.096L147.433 55.5321H144.015ZM149.379 56.6857V51.3022H150.618V55.6703H153.302V56.6857H149.379ZM156.159 56.6857V51.3022H158.591C159.172 51.3022 159.684 51.415 160.127 51.6406C160.571 51.861 160.917 52.1712 161.167 52.5712C161.417 52.9711 161.542 53.4453 161.542 53.994C161.542 54.5377 161.417 55.0115 161.167 55.4165C160.917 55.8166 160.571 56.1296 160.127 56.355C159.684 56.5755 159.172 56.6857 158.591 56.6857H156.159ZM157.398 55.6628H158.529C158.886 55.6628 159.195 55.5961 159.455 55.4627C159.72 55.3245 159.924 55.1298 160.066 54.8781C160.214 54.627 160.288 54.3322 160.288 53.994C160.288 53.6505 160.214 53.3556 160.066 53.1095C159.924 52.8583 159.72 52.666 159.455 52.5327C159.195 52.3943 158.886 52.3251 158.529 52.3251H157.398V55.6628ZM162.476 56.6857V51.3022H166.52V52.302H163.707V55.6859H166.62V56.6857H162.476ZM163.615 54.4398V53.471H166.192V54.4398H163.615ZM169.771 56.6857V51.3022H172.057C172.801 51.3022 173.38 51.4765 173.792 51.8252C174.205 52.1687 174.412 52.6455 174.412 53.2556C174.412 53.6556 174.317 54.0015 174.129 54.2941C173.94 54.5813 173.673 54.8012 173.326 54.955C172.98 55.1088 172.566 55.1858 172.087 55.1858H170.459L171.009 54.6399V56.6857H169.771ZM173.173 56.6857L171.835 54.7324H173.158L174.511 56.6857H173.173ZM171.009 54.7786L170.459 54.194H172.019C172.401 54.194 172.686 54.1117 172.875 53.9477C173.064 53.7786 173.158 53.5479 173.158 53.2556C173.158 52.9583 173.064 52.7276 172.875 52.5635C172.686 52.3994 172.401 52.3174 172.019 52.3174H170.459L171.009 51.7252V54.7786ZM175.393 56.6857V51.3022H179.438V52.302H176.624V55.6859H179.537V56.6857H175.393ZM176.533 54.4398V53.471H179.109V54.4398H176.533ZM182.281 56.7782C181.853 56.7782 181.443 56.7218 181.05 56.6088C180.658 56.491 180.342 56.3394 180.102 56.1549L180.523 55.2169C180.752 55.381 181.022 55.5165 181.333 55.6246C181.649 55.7268 181.967 55.7784 182.289 55.7784C182.534 55.7784 182.73 55.7553 182.877 55.709C183.03 55.658 183.143 55.5886 183.214 55.5015C183.285 55.4143 183.321 55.3143 183.321 55.2014C183.321 55.0578 183.265 54.9448 183.153 54.8631C183.041 54.7759 182.893 54.7066 182.71 54.6555C182.526 54.599 182.322 54.5479 182.098 54.5017C181.879 54.45 181.657 54.3887 181.432 54.3172C181.214 54.2451 181.012 54.1531 180.829 54.0402C180.645 53.9273 180.494 53.7786 180.377 53.594C180.265 53.4095 180.209 53.1736 180.209 52.8865C180.209 52.5789 180.291 52.2994 180.454 52.0482C180.622 51.7918 180.872 51.5893 181.203 51.4406C181.54 51.2868 181.96 51.2099 182.465 51.2099C182.801 51.2099 183.132 51.2509 183.459 51.333C183.785 51.4099 184.073 51.5278 184.323 51.6867L183.94 52.6327C183.691 52.4891 183.441 52.384 183.191 52.3174C182.941 52.2456 182.697 52.2097 182.457 52.2097C182.218 52.2097 182.021 52.2379 181.869 52.2943C181.716 52.3507 181.606 52.425 181.54 52.5173C181.473 52.6045 181.44 52.707 181.44 52.825C181.44 52.9634 181.496 53.0762 181.608 53.1634C181.72 53.2454 181.869 53.3121 182.052 53.3633C182.235 53.4146 182.437 53.4659 182.656 53.5171C182.88 53.5684 183.102 53.6274 183.321 53.694C183.545 53.7607 183.749 53.8504 183.933 53.9633C184.116 54.0762 184.264 54.2247 184.376 54.4091C184.493 54.5936 184.552 54.827 184.552 55.1088C184.552 55.4116 184.468 55.6886 184.3 55.9398C184.131 56.1909 183.879 56.3937 183.543 56.5475C183.212 56.7013 182.791 56.7782 182.281 56.7782ZM185.398 56.6857V51.3022H186.637V56.6857H185.398ZM187.907 56.6857V51.3022H190.338C190.919 51.3022 191.432 51.415 191.875 51.6406C192.319 51.861 192.665 52.1712 192.915 52.5712C193.165 52.9711 193.29 53.4453 193.29 53.994C193.29 54.5377 193.165 55.0115 192.915 55.4165C192.665 55.8166 192.319 56.1296 191.875 56.355C191.432 56.5755 190.919 56.6857 190.338 56.6857H187.907ZM189.146 55.6628H190.277C190.634 55.6628 190.942 55.5961 191.202 55.4627C191.467 55.3245 191.671 55.1298 191.814 54.8781C191.962 54.627 192.036 54.3322 192.036 53.994C192.036 53.6505 191.962 53.3556 191.814 53.1095C191.671 52.8583 191.467 52.666 191.202 52.5327C190.942 52.3943 190.634 52.3251 190.277 52.3251H189.146V55.6628ZM196.602 56.7782C195.842 56.7782 195.248 56.5652 194.82 56.1398C194.392 55.7139 194.178 55.1067 194.178 54.3172V51.3022H195.417V54.2709C195.417 54.7835 195.521 55.1529 195.73 55.3783C195.939 55.6036 196.232 55.7166 196.609 55.7166C196.986 55.7166 197.279 55.6036 197.488 55.3783C197.697 55.1529 197.802 54.7835 197.802 54.2709V51.3022H199.026V54.3172C199.026 55.1067 198.811 55.7139 198.383 56.1398C197.955 56.5652 197.361 56.7782 196.602 56.7782ZM202.849 56.7782C202.426 56.7782 202.034 56.7088 201.672 56.5701C201.314 56.4319 201.004 56.2372 200.739 55.986C200.479 55.7349 200.275 55.4396 200.127 55.1013C199.984 54.763 199.913 54.3941 199.913 53.994C199.913 53.594 199.984 53.2249 200.127 52.8865C200.275 52.5481 200.481 52.2533 200.746 52.0021C201.011 51.7508 201.323 51.556 201.679 51.4176C202.036 51.2791 202.423 51.2099 202.841 51.2099C203.264 51.2099 203.652 51.2791 204.003 51.4176C204.36 51.556 204.668 51.7508 204.928 52.0021C205.194 52.2533 205.4 52.5481 205.548 52.8865C205.696 53.2198 205.769 53.5889 205.769 53.994C205.769 54.3941 205.696 54.7657 205.548 55.1088C205.4 55.4477 205.194 55.7424 204.928 55.9936C204.668 56.2399 204.36 56.4319 204.003 56.5701C203.652 56.7088 203.267 56.7782 202.849 56.7782ZM202.841 55.7166C203.081 55.7166 203.3 55.6757 203.499 55.5934C203.703 55.5117 203.881 55.3939 204.034 55.2401C204.187 55.0863 204.304 54.9039 204.386 54.6937C204.472 54.4834 204.516 54.2505 204.516 53.994C204.516 53.7376 204.472 53.5043 204.386 53.2941C204.304 53.0839 204.187 52.9019 204.034 52.7481C203.886 52.5942 203.71 52.4763 203.507 52.3943C203.302 52.3123 203.081 52.2712 202.841 52.2712C202.602 52.2712 202.38 52.3123 202.176 52.3943C201.977 52.4763 201.802 52.5942 201.649 52.7481C201.496 52.9019 201.376 53.0839 201.289 53.2941C201.208 53.5043 201.167 53.7376 201.167 53.994C201.167 54.2451 201.208 54.4785 201.289 54.6937C201.376 54.9039 201.493 55.0863 201.641 55.2401C201.794 55.3939 201.972 55.5117 202.176 55.5934C202.38 55.6757 202.602 55.7166 202.841 55.7166ZM208.459 56.7782C208.031 56.7782 207.62 56.7218 207.228 56.6088C206.835 56.491 206.519 56.3394 206.28 56.1549L206.701 55.2169C206.93 55.381 207.2 55.5165 207.511 55.6246C207.827 55.7268 208.145 55.7784 208.467 55.7784C208.711 55.7784 208.907 55.7553 209.055 55.709C209.208 55.658 209.321 55.5886 209.392 55.5015C209.463 55.4143 209.499 55.3143 209.499 55.2014C209.499 55.0578 209.443 54.9448 209.331 54.8631C209.219 54.7759 209.071 54.7066 208.887 54.6555C208.704 54.599 208.5 54.5479 208.275 54.5017C208.056 54.45 207.835 54.3887 207.61 54.3172C207.391 54.2451 207.19 54.1531 207.007 54.0402C206.823 53.9273 206.672 53.7786 206.555 53.594C206.443 53.4095 206.387 53.1736 206.387 52.8865C206.387 52.5789 206.469 52.2994 206.632 52.0482C206.8 51.7918 207.05 51.5893 207.381 51.4406C207.717 51.2868 208.138 51.2099 208.643 51.2099C208.979 51.2099 209.31 51.2509 209.637 51.333C209.963 51.4099 210.25 51.5278 210.501 51.6867L210.118 52.6327C209.868 52.4891 209.618 52.384 209.369 52.3174C209.119 52.2456 208.874 52.2097 208.635 52.2097C208.395 52.2097 208.199 52.2379 208.046 52.2943C207.893 52.3507 207.783 52.425 207.717 52.5173C207.651 52.6045 207.618 52.707 207.618 52.825C207.618 52.9634 207.674 53.0762 207.786 53.1634C207.898 53.2454 208.046 53.3121 208.23 53.3633C208.413 53.4146 208.614 53.4659 208.834 53.5171C209.058 53.5684 209.279 53.6274 209.499 53.694C209.723 53.7607 209.927 53.8504 210.11 53.9633C210.294 54.0762 210.442 54.2247 210.554 54.4091C210.671 54.5936 210.73 54.827 210.73 55.1088C210.73 55.4116 210.646 55.6886 210.478 55.9398C210.309 56.1909 210.057 56.3937 209.721 56.5475C209.389 56.7013 208.969 56.7782 208.459 56.7782Z" fill="var(--fill-0, #D1D5DB)"/>
<path id="Vector_5" d="M209.244 16.9218C208.672 16.9218 208.103 16.8469 207.539 16.697C206.974 16.5393 206.495 16.3184 206.104 16.0344L206.845 14.5673C207.158 14.796 207.523 14.9775 207.939 15.1115C208.354 15.2456 208.774 15.3127 209.197 15.3127C209.676 15.3127 210.052 15.218 210.326 15.0287C210.601 14.8394 210.738 14.5791 210.738 14.2478C210.738 13.9323 210.617 13.6838 210.373 13.5024C210.13 13.321 209.738 13.2303 209.197 13.2303H208.327V11.9642L210.62 9.34938L210.832 10.0356H206.515V8.49748H212.279V9.73983L209.997 12.3547L209.032 11.7986H209.585C210.597 11.7986 211.361 12.0273 211.879 12.4848C212.397 12.9424 212.655 13.53 212.655 14.2478C212.655 14.7132 212.534 15.151 212.291 15.5611C212.047 15.9634 211.675 16.2908 211.173 16.5432C210.671 16.7956 210.029 16.9218 209.244 16.9218ZM217.217 16.9218C216.464 16.9218 215.809 16.7641 215.253 16.4485C214.704 16.133 214.28 15.6716 213.982 15.0642C213.684 14.4568 213.535 13.7075 213.535 12.8161C213.535 11.8617 213.712 11.0532 214.065 10.3906C214.425 9.728 214.919 9.22315 215.547 8.8761C216.182 8.52905 216.911 8.3555 217.735 8.3555C218.174 8.3555 218.593 8.40282 218.993 8.49748C219.393 8.59213 219.738 8.73412 220.028 8.92343L219.323 10.3314C219.095 10.1737 218.852 10.0672 218.593 10.012C218.335 9.94888 218.064 9.91731 217.782 9.91731C217.068 9.91731 216.503 10.1342 216.088 10.5681C215.672 11.0019 215.465 11.6448 215.465 12.4967C215.465 12.6387 215.465 12.7964 215.465 12.9699C215.472 13.1435 215.496 13.317 215.535 13.4906L215.006 12.9936C215.154 12.686 215.347 12.4296 215.582 12.2245C215.817 12.0116 216.095 11.8538 216.417 11.7513C216.747 11.6408 217.107 11.5856 217.499 11.5856C218.033 11.5856 218.511 11.6921 218.935 11.9051C219.358 12.1181 219.695 12.4178 219.946 12.8043C220.205 13.1908 220.334 13.6444 220.334 14.165C220.334 14.725 220.193 15.2141 219.911 15.6321C219.636 16.0423 219.264 16.3618 218.793 16.5905C218.33 16.8114 217.805 16.9218 217.217 16.9218ZM217.111 15.4902C217.378 15.4902 217.613 15.4428 217.817 15.3482C218.029 15.2456 218.193 15.0997 218.311 14.9104C218.429 14.7211 218.488 14.5042 218.488 14.2596C218.488 13.881 218.358 13.5813 218.099 13.3604C217.848 13.1317 217.511 13.0173 217.088 13.0173C216.805 13.0173 216.558 13.0725 216.347 13.1829C216.135 13.2855 215.966 13.4314 215.841 13.6207C215.723 13.8021 215.664 14.0151 215.664 14.2596C215.664 14.4963 215.723 14.7092 215.841 14.8986C215.959 15.08 216.123 15.2259 216.335 15.3363C216.547 15.4389 216.805 15.4902 217.111 15.4902ZM224.553 16.9218C223.879 16.9218 223.276 16.7562 222.742 16.4249C222.209 16.0857 221.789 15.5966 221.483 14.9577C221.177 14.3188 221.025 13.5458 221.025 12.6387C221.025 11.7315 221.177 10.9585 221.483 10.3196C221.789 9.68067 222.209 9.19556 222.742 8.86427C223.276 8.52507 223.879 8.3555 224.553 8.3555C225.236 8.3555 225.84 8.52507 226.365 8.86427C226.898 9.19556 227.318 9.68067 227.623 10.3196C227.929 10.9585 228.082 11.7315 228.082 12.6387C228.082 13.5458 227.929 14.3188 227.623 14.9577C227.318 15.5966 226.898 16.0857 226.365 16.4249C225.84 16.7562 225.236 16.9218 224.553 16.9218ZM224.553 15.3008C224.875 15.3008 225.153 15.2101 225.389 15.0287C225.632 14.8473 225.82 14.5594 225.953 14.165C226.094 13.7706 226.165 13.2618 226.165 12.6387C226.165 12.0155 226.094 11.5067 225.953 11.1123C225.82 10.718 225.632 10.43 225.389 10.2486C225.153 10.0672 224.875 9.97647 224.553 9.97647C224.24 9.97647 223.961 10.0672 223.718 10.2486C223.483 10.43 223.295 10.718 223.154 11.1123C223.02 11.5067 222.954 12.0155 222.954 12.6387C222.954 13.2618 223.02 13.7706 223.154 14.165C223.295 14.5594 223.483 14.8473 223.718 15.0287C223.961 15.2101 224.24 15.3008 224.553 15.3008ZM231.008 12.4493C230.623 12.4493 230.275 12.3626 229.961 12.189C229.647 12.0076 229.396 11.7631 229.208 11.4555C229.028 11.1478 228.938 10.8047 228.938 10.4261C228.938 10.0475 229.028 9.70434 229.208 9.39671C229.396 9.08908 229.647 8.84453 229.961 8.66313C230.275 8.48172 230.623 8.39099 231.008 8.39099C231.392 8.39099 231.737 8.48172 232.043 8.66313C232.357 8.84453 232.604 9.08908 232.784 9.39671C232.972 9.70434 233.066 10.0475 233.066 10.4261C233.066 10.8047 232.972 11.1478 232.784 11.4555C232.604 11.7552 232.357 11.9958 232.043 12.1772C231.737 12.3586 231.392 12.4493 231.008 12.4493ZM231.008 11.5383C231.212 11.5383 231.396 11.491 231.561 11.3963C231.725 11.2937 231.855 11.1597 231.949 10.994C232.043 10.8284 232.09 10.6391 232.09 10.4261C232.09 10.2131 232.043 10.0238 231.949 9.85815C231.855 9.6846 231.725 9.55052 231.561 9.45587C231.396 9.36121 231.212 9.31388 231.008 9.31388C230.796 9.31388 230.608 9.36121 230.443 9.45587C230.279 9.55052 230.149 9.68067 230.055 9.84632C229.961 10.012 229.914 10.2052 229.914 10.4261C229.914 10.6391 229.961 10.8284 230.055 10.994C230.149 11.1597 230.279 11.2937 230.443 11.3963C230.608 11.491 230.796 11.5383 231.008 11.5383Z" fill="var(--fill-0, #0082FC)"/>
<path id="Vector_6" d="M9.44505 53.3327L21.9564 53.4266" stroke="var(--stroke-0, #439823)" stroke-width="3" stroke-linecap="round"/>
<path id="Vector_7" d="M217.485 53.3327L229.996 53.4266" stroke="var(--stroke-0, #003A80)" stroke-width="3" stroke-linecap="round"/>
</g>
<defs>
<linearGradient id="paint0_linear_0_93" x1="52.8789" y1="19.6571" x2="52.8789" y2="45.4454" gradientUnits="userSpaceOnUse">
<stop stop-color="#65F843"/>
<stop offset="0.9999" stop-color="#2F721F"/>
</linearGradient>
<linearGradient id="paint1_linear_0_93" x1="158.423" y1="20.7597" x2="158.423" y2="45.4454" gradientUnits="userSpaceOnUse">
<stop stop-color="#0082FC"/>
<stop offset="1" stop-color="#003168"/>
</linearGradient>
</defs>
</svg>
